<svg width="167" height="125" viewBox="0 0 167 125" fill="none" xmlns="http://www.w3.org/2000/svg">
<g clip-path="url(#clip0_302_212)">
<rect x="-47" y="-37" width="250" height="200" fill="white"/>
<path fill-rule="evenodd" clip-rule="evenodd" d="M160 28C163.866 28 167 31.134 167 35C167 38.866 163.866 42 160 42H120C123.866 42 127 45.134 127 49C127 52.866 123.866 56 120 56H142C145.866 56 149 59.134 149 63C149 66.866 145.866 70 142 70H131.826C126.952 70 123 73.134 123 77C123 79.5773 125 81.9107 129 84C132.866 84 136 87.134 136 91C136 94.866 132.866 98 129 98H46C42.134 98 39 94.866 39 91C39 87.134 42.134 84 46 84H7C3.13401 84 0 80.866 0 77C0 73.134 3.13401 70 7 70H47C50.866 70 54 66.866 54 63C54 59.134 50.866 56 47 56H22C18.134 56 15 52.866 15 49C15 45.134 18.134 42 22 42H62C58.134 42 55 38.866 55 35C55 31.134 58.134 28 62 28H160ZM160 56C163.866 56 167 59.134 167 63C167 66.866 163.866 70 160 70C156.134 70 153 66.866 153 63C153 59.134 156.134 56 160 56Z" fill="#F7F7F7"/>
<path d="M73.5 96C92.0015 96 107 81.0015 107 62.5C107 43.9985 92.0015 29 73.5 29C54.9985 29 40 43.9985 40 62.5C40 81.0015 54.9985 96 73.5 96Z" fill="#F7F7F7" stroke="#3F3F46" stroke-width="2.5"/>
<path fill-rule="evenodd" clip-rule="evenodd" d="M68.1321 88.4939C69.8908 88.8185 71.6801 88.9872 73.5 89C88.1355 89 100 77.1355 100 62.5C100 47.8645 88.1355 36 73.5 36C69.7404 36 66.1636 36.7829 62.9238 38.1946C57.2938 40.6479 52.6816 44.9999 49.896 50.4419C48.0445 54.0589 47 58.1575 47 62.5C47 66.44 47.8599 70.1792 49.4021 73.5401C50.5032 75.9396 51.9521 78.1463 53.6843 80.0956" fill="white"/>
<path d="M68.1321 88.4939C69.8908 88.8185 71.6801 88.9872 73.5 89C88.1355 89 100 77.1355 100 62.5C100 47.8645 88.1355 36 73.5 36C69.7404 36 66.1636 36.7829 62.9238 38.1946C57.2938 40.6479 52.6816 44.9999 49.896 50.4419C48.0445 54.0589 47 58.1575 47 62.5C47 66.44 47.8599 70.1792 49.4021 73.5401C50.5032 75.9396 51.9521 78.1463 53.6843 80.0956" stroke="#3F3F46" stroke-width="2.5" stroke-linecap="round"/>
<path d="M56.7974 83.0747C58.9455 84.8207 61.3723 86.237 64.0008 87.2466" stroke="#3F3F46" stroke-width="2.5" stroke-linecap="round"/>
<path d="M101 89L107 95" stroke="#3F3F46" stroke-width="2.5"/>
<path fill-rule="evenodd" clip-rule="evenodd" d="M106.03 94.0303C104.138 95.923 104.138 98.9917 106.03 100.884L117.116 111.97C119.008 113.862 122.077 113.862 123.97 111.97C125.863 110.077 125.863 107.008 123.97 105.116L112.885 94.0303C110.992 92.1376 107.923 92.1376 106.03 94.0303Z" fill="#F4F4F5" stroke="#3F3F46" stroke-width="2.5"/>
<path d="M111 96L122 107" stroke="white" stroke-width="2.5" stroke-linecap="round"/>
<path fill-rule="evenodd" clip-rule="evenodd" d="M67 51C67 62.598 76.4021 72 88 72C90.2784 72 92.472 71.6372 94.5262 70.9662C91.1732 79.2871 83.0225 85.1607 73.5 85.1607C60.9849 85.1607 50.8394 75.0152 50.8394 62.5C50.8394 51.1596 59.1697 41.7648 70.045 40.1011C68.113 43.2793 67 47.0097 67 51Z" fill="#F4F4F5"/>
<path d="M74 44C72.7266 44 71.4825 44.1253 70.2793 44.3642M66.6447 45.4761C59.8039 48.3508 55 55.1144 55 63" stroke="#52525B" stroke-width="2.5" stroke-linecap="round"/>
<path d="M127.176 62.7773H119M133.5 55H116.324H133.5ZM140.5 55H138.279H140.5Z" stroke="#52525B" stroke-width="2.5" stroke-linecap="round" stroke-linejoin="round"/>
<path d="M37.1758 84.7773H29M32.5 76H15.3242H32.5ZM9.5 76H5.27881H9.5Z" stroke="#52525B" stroke-width="2.5" stroke-linecap="round" stroke-linejoin="round"/>
</g>
<defs>
<clipPath id="clip0_302_212">
<rect width="167" height="125" fill="white"/>
</clipPath>
</defs>
</svg>
